<?xml version="1.0" encoding="utf-8"?>
<!-- Generator: Adobe Illustrator 17.1.0, SVG Export Plug-In . SVG Version: 6.00 Build 0)  -->
<!DOCTYPE svg PUBLIC "-//W3C//DTD SVG 1.1//EN" "http://www.w3.org/Graphics/SVG/1.1/DTD/svg11.dtd">
<svg version="1.1" id="Layer_1" xmlns="http://www.w3.org/2000/svg" xmlns:xlink="http://www.w3.org/1999/xlink" x="0px" y="0px"
	 viewBox="0 0 310 180" enable-background="new 0 0 310 180" xml:space="preserve">
<g>
	<path fill="#87878C" d="M228.192,175.564H80.085c-16.465,0-29.812-13.347-29.812-29.812l-10-137.823
		c0-2.935,2.38-5.315,5.315-5.315h216.691c3.238,0,5.863,2.625,5.863,5.863l-10,137.138
		C258.142,162.155,244.733,175.564,228.192,175.564z"/>
	<g>
		<g>
			<path fill="#6B6B6B" d="M11.65,28.169c11.475,0,22.951,0,34.426,0c-2.5-2.5-5-5-7.5-7.5c0,7.435,0,14.87,0,22.305
				c0,9.673,15,9.673,15,0c0-7.435,0-14.87,0-22.305c0-4.088-3.412-7.5-7.5-7.5c-11.475,0-22.951,0-34.426,0
				C1.977,13.169,1.977,28.169,11.65,28.169L11.65,28.169z"/>
		</g>
	</g>
	<g>
		<g>
			<path fill="#6B6B6B" d="M296.912,13.955c-11.475,0-22.951,0-34.426,0c-4.088,0-7.5,3.412-7.5,7.5c0,7.435,0,14.87,0,22.305
				c0,9.673,15,9.673,15,0c0-7.435,0-14.87,0-22.305c-2.5,2.5-5,5-7.5,7.5c11.475,0,22.951,0,34.426,0
				C306.585,28.955,306.585,13.955,296.912,13.955L296.912,13.955z"/>
		</g>
	</g>
	<path fill="#FFFFFF" d="M114.814,177.597c-19.047,0.269-29.451-12.013-29.667-27.342c-0.216-15.329,9.836-27.9,28.883-28.169
		s39.875,11.866,40.092,27.195C154.339,164.61,133.861,177.328,114.814,177.597z"/>
	<path fill="#FFFFFF" d="M81.372,147.57c-0.259,19.758-13.288,30.199-29.19,29.991s-28.653-10.988-28.394-30.746
		c0.259-19.758,13.43-41.013,29.331-40.805S81.631,127.811,81.372,147.57z"/>
	<g>
		<path fill="#DF574B" d="M279.624,170.002c0,4.112-3.333,7.446-7.446,7.446h-54.62c-4.112,0-7.446-3.333-7.446-7.446v-54.62
			c0-4.112,3.333-7.446,7.446-7.446h54.62c4.112,0,7.446,3.333,7.446,7.446V170.002z"/>
		<path fill="#FFFFFF" d="M274.978,166.351c0,3.562-2.888,6.45-6.45,6.45H221.21c-3.562,0-6.45-2.888-6.45-6.45v-47.318
			c0-3.562,2.888-6.45,6.45-6.45h47.318c3.562,0,6.45,2.888,6.45,6.45V166.351z"/>
		<path fill="#FFFFFF" d="M266.491,113.13c0,1.046-0.848,1.894-1.894,1.894h-5.112c-1.046,0-1.894-0.848-1.894-1.894v-5.112
			c0-1.046,0.848-1.894,1.894-1.894h5.112c1.046,0,1.894,0.848,1.894,1.894V113.13z"/>
		<path fill="#EAEAEA" d="M271.339,163.492c0,3.132-2.539,5.671-5.671,5.671h-41.599c-3.132,0-5.671-2.539-5.671-5.671v-41.599
			c0-3.132,2.539-5.671,5.671-5.671h41.599c3.132,0,5.671,2.539,5.671,5.671V163.492z"/>
		<circle fill="#6B6B6B" cx="244.869" cy="142.693" r="3.75"/>
		<path fill="#6B6B6B" d="M246.387,142.819c0,0.281-0.68,0.51-1.518,0.51l0,0c-0.839,0-1.518-0.228-1.518-0.51v-17.177
			c0-0.281,0.68-0.51,1.518-0.51l0,0c0.839,0,1.518,0.228,1.518,0.51V142.819z"/>
		<path fill="#6B6B6B" d="M267.171,141.673c0.363-0.001,0.658,0.455,0.658,1.018l0,0c0.001,0.563-0.293,1.019-0.656,1.02
			l-22.146,0.031c-0.363,0.001-0.658-0.455-0.658-1.018l0,0c-0.001-0.563,0.293-1.019,0.656-1.02L267.171,141.673z"/>
	</g>
</g>
</svg>
