<?xml version="1.0" encoding="utf-8"?>
<!-- Generator: Adobe Illustrator 17.1.0, SVG Export Plug-In . SVG Version: 6.00 Build 0)  -->
<!DOCTYPE svg PUBLIC "-//W3C//DTD SVG 1.1//EN" "http://www.w3.org/Graphics/SVG/1.1/DTD/svg11.dtd">
<svg version="1.1" id="Layer_1" xmlns="http://www.w3.org/2000/svg" xmlns:xlink="http://www.w3.org/1999/xlink" x="0px" y="0px"
	 viewBox="0 0 516.32 133.41" enable-background="new 0 0 516.32 133.41" xml:space="preserve">
<g>
	<path fill="#FFFFFF" d="M54.26,123.08c-4.13,0-7.93-0.24-11.3-0.73c-4.48-0.64-8.48-1.51-11.91-2.58
		c-3.47-1.08-6.51-2.36-9.05-3.79c-2.54-1.43-4.69-2.97-6.39-4.55c-4.09-3.75-6.7-8.12-7.74-12.98c-1.38-7-2.15-14.4-2.31-22.03
		c-0.16-7.57-0.02-14.64,0.39-20.99c0.41-7.38,1.15-14.78,2.2-21.98c0.69-3.9,1.92-7.31,3.68-10.2c1.74-2.87,3.86-5.35,6.29-7.39
		c2.39-2,5.05-3.67,7.89-4.95c2.79-1.26,5.65-2.23,8.48-2.88c5.32-1.33,11.23-2.01,17.53-2.01c1.25,0,2.54,0.03,3.84,0.08
		c5.88,0.21,11.07,0.64,15.43,1.27c4.41,0.64,8.31,1.48,11.59,2.5c3.31,1.03,6.11,2.17,8.32,3.39c2.28,1.26,4.14,2.6,5.54,4
		c3.48,3.24,5.21,7.02,5.09,11.18c0,3.42-0.67,6.5-1.99,9.08c-1.29,2.52-3.02,4.7-5.14,6.46c-2.07,1.73-4.52,3.13-7.26,4.16
		c-2.61,0.98-5.3,1.75-8.01,2.29c-2.06,0.38-4.22,0.69-6.47,0.9c3.26,1.99,5.49,3.97,6.83,6.03c1.63,2.51,2.34,5.31,2.11,8.31
		c-0.02,3.88-1.12,7.1-3.26,9.56c-1.51,1.73-3.14,3.21-4.87,4.44c0.67,0.07,1.31,0.15,1.94,0.24c3.79,0.54,7.11,1.31,9.9,2.3
		c2.82,1,5.24,2.17,7.18,3.48c1.92,1.3,3.53,2.66,4.8,4.04c3.03,3.39,4.55,7.36,4.55,11.81c0,0.07,0,0.14-0.01,0.21
		c-0.25,2.92-1.12,5.5-2.61,7.67c-1.41,2.06-3.22,3.86-5.37,5.38c-2.1,1.48-4.53,2.71-7.22,3.66c-2.54,0.9-5.14,1.68-7.7,2.33
		c-6.11,1.39-13.1,2.15-20.81,2.25C57.06,123.05,55.63,123.08,54.26,123.08z"/>
	<path fill="#213266" d="M52.04,8.52c1.23,0,2.47,0.03,3.73,0.08c5.81,0.21,10.87,0.62,15.18,1.24c4.3,0.62,8.04,1.43,11.21,2.41
		c3.16,0.99,5.78,2.05,7.86,3.19c2.07,1.14,3.74,2.33,4.98,3.58c3.01,2.8,4.46,5.91,4.36,9.34c0,3.11-0.57,5.79-1.71,8.02
		c-1.14,2.23-2.65,4.13-4.51,5.68c-1.87,1.56-4.05,2.8-6.54,3.74c-2.49,0.93-5.03,1.66-7.63,2.18c-4.49,0.84-9.42,1.26-14.8,1.26
		c-1.96,0-3.98-0.06-6.06-0.17c5.91,1.04,10.38,2.47,13.39,4.28c3.01,1.82,5.08,3.61,6.23,5.37c1.35,2.08,1.92,4.36,1.71,6.85
		c0,3.32-0.88,5.99-2.65,8.02c-1.77,2.02-3.68,3.66-5.76,4.9c-2.49,1.45-5.29,2.54-8.4,3.27c0.8-0.02,1.59-0.03,2.36-0.03
		c3.9,0,7.37,0.22,10.4,0.65c3.63,0.52,6.77,1.24,9.42,2.18c2.65,0.93,4.85,2,6.61,3.19c1.76,1.19,3.22,2.41,4.36,3.66
		c2.59,2.91,3.89,6.28,3.89,10.12c-0.21,2.49-0.93,4.64-2.18,6.46c-1.24,1.82-2.83,3.4-4.75,4.75c-1.92,1.35-4.12,2.47-6.61,3.35
		c-2.49,0.88-4.98,1.63-7.47,2.26c-5.91,1.35-12.66,2.07-20.23,2.18c-1.43,0.05-2.81,0.08-4.15,0.08c-4.03,0-7.68-0.23-10.95-0.7
		c-4.36-0.62-8.2-1.45-11.52-2.49c-3.32-1.04-6.17-2.23-8.56-3.58c-2.39-1.35-4.36-2.75-5.91-4.2c-3.74-3.42-6.07-7.32-7-11.67
		c-1.35-6.85-2.1-14.03-2.26-21.56C7.91,68.85,8.04,61.93,8.45,55.6c0.41-7.37,1.14-14.63,2.18-21.79c0.62-3.53,1.74-6.61,3.35-9.26
		c1.61-2.65,3.53-4.9,5.76-6.77c2.23-1.87,4.67-3.4,7.32-4.59c2.65-1.19,5.32-2.1,8.02-2.72C40.26,9.16,45.91,8.52,52.04,8.52
		 M52.04,3.52L52.04,3.52c-6.49,0-12.59,0.7-18.14,2.08c-2.98,0.69-5.97,1.71-8.9,3.03c-3.06,1.38-5.91,3.17-8.47,5.32
		c-2.64,2.21-4.94,4.9-6.82,8.01c-1.92,3.16-3.27,6.86-4,10.99c-0.01,0.05-0.02,0.1-0.02,0.15c-1.06,7.28-1.8,14.76-2.22,22.23
		c-0.42,6.38-0.55,13.52-0.4,21.16C3.23,84.26,4.02,91.8,5.41,98.9c0.01,0.03,0.01,0.05,0.02,0.08c1.15,5.37,4.02,10.19,8.52,14.31
		c1.81,1.69,4.12,3.34,6.84,4.87c2.68,1.52,5.89,2.86,9.53,4c3.55,1.11,7.69,2.01,12.3,2.67c3.49,0.5,7.41,0.75,11.65,0.75
		c1.38,0,2.82-0.03,4.28-0.08c7.86-0.11,15-0.89,21.22-2.3c0.03-0.01,0.07-0.02,0.1-0.02c2.64-0.66,5.31-1.47,7.93-2.4
		c2.9-1.03,5.53-2.36,7.82-3.97c2.4-1.69,4.42-3.71,6-6.01c1.73-2.52,2.76-5.51,3.04-8.87c0.01-0.14,0.02-0.28,0.02-0.42
		c0-5.08-1.74-9.61-5.16-13.45c-0.02-0.02-0.03-0.04-0.05-0.05c-1.4-1.52-3.16-3.01-5.24-4.42c-2.12-1.43-4.73-2.7-7.75-3.77
		c-2.06-0.73-4.38-1.34-6.95-1.84c0.35-0.37,0.7-0.74,1.03-1.13c2.54-2.91,3.84-6.64,3.88-11.1c0.25-3.53-0.6-6.81-2.52-9.77
		c-0.67-1.03-1.51-2.03-2.54-3.01c0.17-0.03,0.34-0.06,0.51-0.09c0.02,0,0.04-0.01,0.06-0.01c2.84-0.57,5.67-1.38,8.4-2.4
		c3-1.13,5.69-2.67,7.98-4.58c2.38-1.98,4.32-4.42,5.76-7.24c1.49-2.92,2.25-6.35,2.26-10.22c0.12-4.85-1.86-9.23-5.89-13.01
		c-1.58-1.56-3.56-2.99-6.04-4.36c-2.39-1.32-5.27-2.49-8.78-3.58c-3.41-1.06-7.44-1.93-11.98-2.59c-4.45-0.64-9.73-1.08-15.71-1.29
		C54.65,3.54,53.32,3.52,52.04,3.52L52.04,3.52z"/>
</g>
<g>
	<path fill="#FFFFFF" d="M196.77,128.45c-2.45,0-4.88-0.25-7.22-0.76c-2.48-0.53-4.77-1.49-6.79-2.86c-2.11-1.43-3.8-3.37-5.03-5.76
		c-0.53-1.03-0.95-2.17-1.25-3.41c-0.5,0.38-1.02,0.76-1.58,1.14c-2.31,1.58-5.11,2.91-8.34,3.97c-3.2,1.05-6.91,1.71-11.04,1.99
		c-0.99,0.06-2.02,0.1-3.06,0.1c-3.3,0-6.92-0.33-10.76-0.98c-7.89-1.53-14.9-4.68-20.89-9.37c-2.58-1.94-5.15-4.36-7.59-7.18
		c-2.47-2.86-4.69-6.32-6.59-10.28c-1.89-3.93-3.44-8.48-4.62-13.51c-1.18-5.03-1.78-10.83-1.78-17.22
		c0.11-8.17,1.57-16.05,4.36-23.45c1.19-3.12,2.77-6.37,4.7-9.65c1.96-3.32,4.43-6.54,7.36-9.57c2.93-3.04,6.47-5.86,10.51-8.4
		c4.04-2.53,8.8-4.74,14.14-6.55c0.07-0.02,0.13-0.04,0.2-0.06c5.67-1.42,11.42-2.13,17.1-2.13c0.76,0,1.51,0.01,2.27,0.04
		c2.7,0.11,5.6,0.41,8.63,0.89c3.1,0.49,6.25,1.32,9.35,2.46c3.1,1.14,6.21,2.68,9.25,4.58c3.07,1.92,6,4.33,8.73,7.16
		c0.04,0.04,0.08,0.08,0.11,0.12c1.84,2.19,3.29,4.68,4.32,7.42c0.92,2.3,1.42,5.11,1.48,8.3c0.06,3.27-0.78,6.83-2.48,10.58
		c-0.02,0.04-0.04,0.08-0.06,0.12c-1.48,2.84-3.67,5.03-6.51,6.51c-2.38,1.31-5.45,2.07-9.34,2.3c-0.37,0.02-0.74,0.03-1.13,0.03
		c-3.64,0-7.97-0.96-13.25-2.95c-2.47-0.66-4.75-0.99-6.75-0.99c-0.78,0-1.54,0.05-2.25,0.15c-2.07,0.33-3.94,1.27-5.66,2.86
		c-1.52,1.4-2.37,4.33-2.46,8.47c0.19,3.28,0.92,6.01,2.15,8.12c0.48,0.8,1.13,1.57,1.92,2.27c0.72,0.65,1.65,1.15,2.76,1.51
		c0.94,0.3,2.04,0.45,3.27,0.45c0.29,0,0.59-0.01,0.89-0.02c0.27-0.01,0.56-0.04,0.85-0.08c-0.36-0.38-0.67-0.78-0.95-1.2
		c-1.06-1.62-1.73-3.19-2-4.66c-0.28-1.82-0.09-3.65,0.57-5.49c1.03-2.65,3.25-4.53,6.62-5.65c2.82-0.94,6.08-1.58,9.67-1.91
		c2.12-0.19,4.31-0.29,6.53-0.29c1.47,0,2.99,0.04,4.5,0.13c3.74,0.21,7.04,0.53,9.81,0.96c2.02,0.36,3.74,0.86,5.17,1.52
		c1.33,0.61,2.47,1.21,3.4,1.79c1.23,0.82,2.22,1.75,3.01,2.8c1.1,1.46,2.01,3.34,2.72,5.57c0.65,2.07,1.18,4.37,1.56,6.83
		c0.37,2.41,0.65,4.95,0.8,7.55c0.16,2.58,0.24,5.17,0.24,7.7c0,5.87-0.32,12.23-0.94,18.91c-0.34,4.67-1.53,8.41-3.52,11.07
		c-1.93,2.57-4.07,4.48-6.36,5.69c-2.58,1.41-5.52,2.19-8.7,2.31C196.83,128.45,196.8,128.45,196.77,128.45z"/>
	<path fill="#213266" d="M158.62,7c0.73,0,1.46,0.01,2.19,0.04c2.59,0.1,5.37,0.39,8.33,0.86c2.96,0.47,5.91,1.24,8.87,2.33
		c2.96,1.09,5.89,2.54,8.79,4.36c2.9,1.82,5.65,4.07,8.25,6.77c1.66,1.97,2.96,4.2,3.89,6.69c0.83,2.08,1.27,4.57,1.32,7.47
		c0.05,2.91-0.7,6.07-2.26,9.49c-1.25,2.39-3.06,4.2-5.45,5.45c-2.08,1.14-4.85,1.82-8.33,2.02c-0.32,0.02-0.65,0.03-0.98,0.03
		c-3.33,0-7.49-0.94-12.48-2.83c-2.74-0.74-5.25-1.11-7.52-1.11c-0.9,0-1.77,0.06-2.6,0.18c-2.59,0.42-4.93,1.58-7,3.5
		c-2.08,1.92-3.17,5.37-3.27,10.35c0.21,3.74,1.04,6.85,2.49,9.34c0.62,1.04,1.43,2,2.41,2.88c0.98,0.88,2.2,1.56,3.66,2.02
		c1.19,0.38,2.53,0.57,4.03,0.57c0.33,0,0.68-0.01,1.03-0.03c1.92-0.1,4.18-0.62,6.77-1.56c-2.39-1.04-4.02-2.23-4.9-3.58
		c-0.88-1.35-1.43-2.59-1.63-3.74c-0.21-1.35-0.05-2.75,0.47-4.2c0.72-1.87,2.41-3.24,5.06-4.12c2.65-0.88,5.68-1.48,9.11-1.79
		c2.05-0.19,4.15-0.28,6.3-0.28c1.43,0,2.89,0.04,4.36,0.12c3.68,0.21,6.87,0.52,9.57,0.93c1.76,0.31,3.27,0.75,4.51,1.32
		c1.24,0.57,2.28,1.12,3.11,1.63c0.93,0.62,1.71,1.35,2.33,2.18c0.93,1.24,1.71,2.86,2.33,4.83c0.62,1.97,1.11,4.12,1.48,6.46
		c0.36,2.33,0.62,4.77,0.78,7.32c0.16,2.54,0.23,5.06,0.23,7.55c0,5.81-0.31,12.04-0.93,18.68c-0.31,4.26-1.32,7.52-3.04,9.81
		c-1.71,2.28-3.56,3.94-5.52,4.98c-2.28,1.25-4.83,1.92-7.63,2.02c-2.28,0-4.51-0.23-6.69-0.7c-2.18-0.47-4.15-1.3-5.91-2.49
		c-1.77-1.19-3.17-2.8-4.2-4.82c-1.04-2.02-1.56-4.54-1.56-7.55c-1.14,1.45-2.78,2.91-4.9,4.36c-2.13,1.45-4.7,2.67-7.7,3.66
		c-3.01,0.98-6.49,1.61-10.43,1.87c-0.94,0.06-1.9,0.09-2.89,0.09c-3.18,0-6.62-0.32-10.34-0.95c-7.47-1.45-14.06-4.41-19.77-8.87
		c-2.49-1.87-4.9-4.15-7.24-6.85c-2.33-2.7-4.41-5.94-6.23-9.73c-1.82-3.79-3.3-8.12-4.44-13c-1.14-4.88-1.71-10.43-1.71-16.65
		c0.1-7.88,1.5-15.41,4.2-22.57c1.14-3.01,2.65-6.09,4.51-9.26c1.87-3.16,4.2-6.2,7-9.11c2.8-2.9,6.15-5.58,10.04-8.02
		c3.89-2.44,8.43-4.54,13.62-6.3C147.63,7.69,153.13,7,158.62,7 M158.62,2c-5.88,0-11.84,0.74-17.7,2.21
		c-0.13,0.03-0.27,0.07-0.4,0.12c-5.53,1.88-10.46,4.17-14.66,6.8c-4.22,2.64-7.91,5.6-10.98,8.78c-3.06,3.17-5.65,6.55-7.71,10.03
		c-2.01,3.4-3.65,6.78-4.88,10.03c-2.9,7.68-4.42,15.84-4.53,24.28c0,0.02,0,0.04,0,0.07c0,6.59,0.62,12.57,1.84,17.8
		c1.22,5.21,2.83,9.92,4.8,14.02c1.99,4.16,4.33,7.81,6.95,10.84c2.54,2.94,5.22,5.47,7.98,7.55c6.3,4.92,13.65,8.22,21.86,9.81
		c0.04,0.01,0.08,0.01,0.12,0.02c3.97,0.68,7.73,1.02,11.18,1.02c1.09,0,2.18-0.03,3.22-0.1c4.34-0.29,8.26-0.99,11.66-2.1
		c2.95-0.97,5.59-2.16,7.86-3.56c0.1,0.21,0.2,0.42,0.3,0.62c1.42,2.77,3.39,5.02,5.85,6.68c2.29,1.55,4.87,2.64,7.67,3.24
		c2.51,0.54,5.12,0.81,7.74,0.81c0.06,0,0.12,0,0.19,0c3.56-0.13,6.86-1.01,9.81-2.61c2.61-1.38,5.02-3.53,7.16-6.38
		c2.31-3.08,3.63-7.13,4.02-12.39c0.63-6.74,0.95-13.17,0.95-19.1c0-2.58-0.08-5.22-0.24-7.85c-0.16-2.67-0.44-5.29-0.83-7.78
		c-0.4-2.58-0.96-5-1.65-7.2c-0.79-2.51-1.84-4.63-3.1-6.32c-0.96-1.28-2.16-2.4-3.56-3.34c-0.04-0.03-0.09-0.06-0.13-0.08
		c-1.03-0.64-2.23-1.27-3.67-1.93c-1.63-0.75-3.56-1.32-5.73-1.7c-0.04-0.01-0.08-0.01-0.11-0.02c-0.99-0.15-2.05-0.29-3.17-0.42
		c2.44-1.65,4.37-3.82,5.76-6.49c0.04-0.08,0.08-0.16,0.12-0.24c1.86-4.09,2.77-8.01,2.7-11.65c-0.06-3.48-0.62-6.57-1.66-9.19
		c-1.13-2.99-2.72-5.72-4.73-8.11c-0.07-0.09-0.15-0.17-0.22-0.25c-2.87-2.98-5.96-5.52-9.2-7.54c-3.19-1.99-6.46-3.61-9.72-4.81
		c-3.25-1.2-6.56-2.07-9.82-2.58c-3.13-0.49-6.12-0.8-8.9-0.91C160.2,2.01,159.4,2,158.62,2L158.62,2z M161.41,53.69
		c0.58-0.08,1.2-0.12,1.85-0.12c1.76,0,3.77,0.3,5.99,0.88c0.34,0.13,0.68,0.25,1.02,0.37c-0.71,0.19-1.41,0.4-2.08,0.62
		c-5.13,1.71-7.26,4.78-8.14,7.06c-0.02,0.04-0.03,0.08-0.05,0.12c-0.8,2.24-1.04,4.48-0.7,6.65c0.01,0.04,0.01,0.08,0.02,0.12
		c0.15,0.84,0.4,1.68,0.74,2.53c-0.58-0.23-1.07-0.51-1.43-0.84c-0.6-0.54-1.09-1.11-1.45-1.7c-1.01-1.74-1.61-4.06-1.79-6.88
		c0.13-4.81,1.3-6.26,1.66-6.59C158.38,54.69,159.81,53.96,161.41,53.69L161.41,53.69z"/>
</g>
<g>
	<path fill="#FFFFFF" d="M314.12,128.45c-2.45,0-4.88-0.25-7.22-0.76c-2.48-0.53-4.77-1.49-6.79-2.86c-2.11-1.43-3.8-3.36-5.03-5.76
		c-0.53-1.03-0.95-2.17-1.25-3.41c-0.5,0.38-1.02,0.76-1.58,1.14c-2.31,1.58-5.11,2.91-8.34,3.97c-3.2,1.05-6.91,1.71-11.04,1.99
		c-0.99,0.06-2.02,0.1-3.06,0.1c-3.3,0-6.92-0.33-10.76-0.98c-7.89-1.53-14.89-4.68-20.89-9.37c-2.59-1.94-5.15-4.36-7.59-7.18
		c-2.47-2.86-4.69-6.32-6.59-10.28c-1.89-3.93-3.44-8.47-4.62-13.51c-1.18-5.03-1.78-10.83-1.78-17.22
		c0.11-8.17,1.57-16.05,4.36-23.45c1.19-3.12,2.77-6.37,4.7-9.65c1.96-3.32,4.44-6.54,7.36-9.57c2.93-3.04,6.47-5.86,10.51-8.4
		c4.04-2.53,8.8-4.73,14.14-6.55c0.07-0.02,0.13-0.04,0.2-0.06c5.67-1.42,11.42-2.13,17.1-2.13c0.76,0,1.51,0.01,2.27,0.04
		c2.7,0.11,5.6,0.41,8.63,0.89c3.1,0.49,6.25,1.32,9.35,2.46c3.1,1.14,6.21,2.68,9.25,4.58c3.07,1.92,6,4.33,8.73,7.16
		c0.04,0.04,0.08,0.08,0.11,0.12c1.84,2.19,3.29,4.68,4.32,7.42c0.92,2.29,1.42,5.1,1.48,8.3c0.06,3.27-0.78,6.83-2.48,10.58
		c-0.02,0.04-0.04,0.08-0.06,0.12c-1.48,2.84-3.67,5.03-6.51,6.51c-2.38,1.31-5.45,2.07-9.34,2.3c-0.37,0.02-0.74,0.03-1.13,0.03
		c-3.64,0-7.97-0.96-13.25-2.95c-2.48-0.66-4.75-0.99-6.75-0.99c-0.78,0-1.54,0.05-2.25,0.15c-2.07,0.33-3.94,1.27-5.66,2.86
		c-1.52,1.4-2.37,4.33-2.46,8.47c0.19,3.28,0.91,6.01,2.15,8.12c0.48,0.8,1.13,1.57,1.92,2.27c0.72,0.65,1.65,1.15,2.76,1.51
		c0.94,0.3,2.03,0.45,3.27,0.45c0.29,0,0.59-0.01,0.89-0.02c0.27-0.01,0.56-0.04,0.85-0.08c-0.36-0.38-0.67-0.78-0.95-1.2
		c-1.08-1.64-1.73-3.17-2-4.66c-0.28-1.82-0.09-3.64,0.57-5.49c1.03-2.65,3.25-4.53,6.62-5.65c2.82-0.94,6.08-1.58,9.67-1.91
		c2.12-0.19,4.31-0.29,6.53-0.29c1.47,0,2.99,0.04,4.5,0.13c3.74,0.21,7.04,0.53,9.81,0.96c2.02,0.36,3.74,0.87,5.18,1.52
		c1.33,0.61,2.47,1.21,3.39,1.79c1.23,0.82,2.23,1.75,3.01,2.8c1.1,1.46,2.01,3.33,2.72,5.57c0.65,2.07,1.18,4.37,1.56,6.83
		c0.38,2.42,0.65,4.95,0.8,7.55c0.16,2.58,0.24,5.17,0.24,7.7c0,5.87-0.32,12.23-0.94,18.91c-0.34,4.67-1.53,8.41-3.53,11.07
		c-1.93,2.57-4.07,4.48-6.36,5.69c-2.58,1.41-5.52,2.19-8.7,2.31C314.18,128.45,314.15,128.45,314.12,128.45z"/>
	<path fill="#213266" d="M275.98,7c0.73,0,1.46,0.01,2.19,0.04c2.59,0.1,5.37,0.39,8.33,0.86c2.96,0.47,5.91,1.24,8.87,2.33
		c2.96,1.09,5.89,2.54,8.79,4.36c2.9,1.82,5.65,4.07,8.25,6.77c1.66,1.97,2.96,4.2,3.89,6.69c0.83,2.08,1.27,4.57,1.32,7.47
		c0.05,2.91-0.7,6.07-2.26,9.49c-1.24,2.39-3.06,4.2-5.45,5.45c-2.08,1.14-4.85,1.82-8.33,2.02c-0.32,0.02-0.65,0.03-0.98,0.03
		c-3.33,0-7.49-0.94-12.48-2.83c-2.75-0.74-5.25-1.11-7.52-1.11c-0.9,0-1.77,0.06-2.6,0.18c-2.59,0.42-4.93,1.58-7,3.5
		c-2.08,1.92-3.17,5.37-3.27,10.35c0.21,3.74,1.04,6.85,2.49,9.34c0.62,1.04,1.42,2,2.41,2.88c0.98,0.88,2.2,1.56,3.66,2.02
		c1.19,0.38,2.53,0.57,4.03,0.57c0.33,0,0.68-0.01,1.03-0.03c1.92-0.1,4.18-0.62,6.77-1.56c-2.39-1.04-4.02-2.23-4.9-3.58
		c-0.88-1.35-1.43-2.59-1.63-3.74c-0.21-1.35-0.05-2.75,0.47-4.2c0.73-1.87,2.41-3.24,5.06-4.12c2.65-0.88,5.68-1.48,9.11-1.79
		c2.05-0.19,4.15-0.28,6.3-0.28c1.43,0,2.89,0.04,4.36,0.12c3.68,0.21,6.87,0.52,9.57,0.93c1.76,0.31,3.27,0.75,4.51,1.32
		c1.24,0.57,2.28,1.12,3.11,1.63c0.93,0.62,1.71,1.35,2.34,2.18c0.93,1.24,1.71,2.86,2.33,4.83c0.62,1.97,1.11,4.12,1.48,6.46
		c0.36,2.33,0.62,4.77,0.78,7.32c0.16,2.54,0.23,5.06,0.23,7.55c0,5.81-0.31,12.04-0.93,18.68c-0.31,4.26-1.32,7.52-3.04,9.81
		c-1.71,2.28-3.56,3.94-5.53,4.98c-2.28,1.25-4.83,1.92-7.63,2.02c-2.28,0-4.51-0.23-6.69-0.7c-2.18-0.47-4.15-1.3-5.91-2.49
		c-1.77-1.19-3.17-2.8-4.2-4.82c-1.04-2.02-1.56-4.54-1.56-7.55c-1.14,1.45-2.78,2.91-4.9,4.36c-2.13,1.45-4.7,2.67-7.7,3.66
		c-3.01,0.98-6.49,1.61-10.43,1.87c-0.94,0.06-1.9,0.09-2.89,0.09c-3.18,0-6.62-0.32-10.34-0.95c-7.47-1.45-14.06-4.41-19.77-8.87
		c-2.49-1.87-4.9-4.15-7.24-6.85c-2.33-2.7-4.41-5.94-6.23-9.73c-1.82-3.79-3.3-8.12-4.44-13c-1.14-4.88-1.71-10.43-1.71-16.65
		c0.1-7.88,1.5-15.41,4.2-22.57c1.14-3.01,2.65-6.09,4.51-9.26c1.87-3.16,4.2-6.2,7-9.11c2.8-2.9,6.15-5.58,10.04-8.02
		c3.89-2.44,8.43-4.54,13.62-6.3C264.99,7.69,270.48,7,275.98,7 M275.98,2c-5.88,0-11.84,0.74-17.7,2.21
		c-0.13,0.03-0.27,0.07-0.4,0.12c-5.53,1.88-10.46,4.17-14.66,6.8c-4.22,2.64-7.91,5.6-10.98,8.78c-3.06,3.17-5.65,6.55-7.71,10.03
		c-2.01,3.4-3.65,6.78-4.88,10.03c-2.9,7.68-4.42,15.84-4.53,24.28c0,0.02,0,0.04,0,0.07c0,6.59,0.62,12.57,1.84,17.8
		c1.22,5.21,2.83,9.92,4.8,14.02c1.99,4.16,4.33,7.81,6.95,10.84c2.54,2.93,5.22,5.47,7.98,7.54c6.3,4.92,13.65,8.22,21.85,9.81
		c0.04,0.01,0.08,0.01,0.12,0.02c3.97,0.68,7.73,1.02,11.18,1.02c1.09,0,2.18-0.03,3.22-0.1c4.34-0.29,8.26-0.99,11.66-2.1
		c2.95-0.97,5.59-2.16,7.86-3.56c0.1,0.21,0.2,0.42,0.3,0.62c1.42,2.77,3.39,5.02,5.85,6.68c2.29,1.55,4.87,2.64,7.67,3.24
		c2.51,0.54,5.12,0.81,7.74,0.81c0.06,0,0.12,0,0.19,0c3.56-0.13,6.86-1.01,9.8-2.61c2.61-1.38,5.02-3.53,7.16-6.39
		c2.31-3.08,3.63-7.13,4.02-12.39c0.63-6.74,0.95-13.17,0.95-19.09c0-2.59-0.08-5.23-0.24-7.85c-0.16-2.67-0.44-5.29-0.83-7.78
		c-0.41-2.59-0.96-5.01-1.65-7.2c-0.79-2.5-1.83-4.63-3.1-6.32c-0.96-1.28-2.16-2.4-3.56-3.34c-0.04-0.03-0.09-0.06-0.13-0.09
		c-1.03-0.64-2.23-1.27-3.67-1.93c-1.63-0.75-3.56-1.32-5.73-1.7c-0.04-0.01-0.08-0.01-0.11-0.02c-0.99-0.15-2.05-0.29-3.17-0.42
		c2.44-1.65,4.37-3.82,5.76-6.49c0.04-0.08,0.08-0.16,0.12-0.24c1.86-4.09,2.77-8.01,2.7-11.65c-0.07-3.49-0.62-6.57-1.66-9.19
		c-1.13-2.99-2.72-5.72-4.73-8.11c-0.07-0.09-0.15-0.17-0.22-0.25c-2.86-2.98-5.96-5.52-9.2-7.54c-3.19-1.99-6.46-3.61-9.72-4.81
		c-3.25-1.2-6.55-2.07-9.82-2.58c-3.13-0.49-6.12-0.8-8.9-0.91C277.55,2.01,276.76,2,275.98,2L275.98,2z M278.76,53.69
		c0.58-0.08,1.2-0.12,1.85-0.12c1.76,0,3.77,0.3,5.99,0.88c0.34,0.13,0.68,0.25,1.02,0.37c-0.71,0.19-1.41,0.4-2.08,0.62
		c-5.13,1.71-7.26,4.78-8.14,7.06c-0.02,0.04-0.03,0.08-0.05,0.12c-0.8,2.24-1.04,4.48-0.7,6.66c0.01,0.04,0.01,0.08,0.02,0.12
		c0.15,0.84,0.4,1.68,0.74,2.53c-0.59-0.23-1.07-0.51-1.43-0.84c-0.6-0.54-1.09-1.11-1.45-1.7c-1.01-1.74-1.61-4.06-1.79-6.88
		c0.13-4.81,1.3-6.26,1.66-6.59C275.74,54.69,277.17,53.96,278.76,53.69L278.76,53.69z"/>
</g>
<g>
	<path fill="#FFFFFF" d="M369.53,123.16c-3.52,0-6.71-0.56-9.48-1.65c-2.71-1.07-5.16-2.48-7.27-4.2c-2.12-1.71-3.91-3.69-5.34-5.86
		c-1.36-2.06-2.55-4.22-3.54-6.42c-2.18-5.11-3.6-10.83-4.25-17.06c-0.63-4.32-1.03-9.08-1.19-14.16
		c-0.16-5.07-0.18-9.85-0.08-14.22c0.1-5.02,0.31-10.24,0.63-15.5c0.54-6.71,1.91-12.77,4.07-18.07c1-2.34,2.22-4.61,3.64-6.8
		c1.47-2.27,3.29-4.31,5.39-6.08c2.11-1.77,4.62-3.24,7.45-4.37c2.88-1.15,6.23-1.74,9.96-1.74c0.06,0,0.12,0,0.19,0.01
		c4.55,0.34,8.76,1.73,12.52,4.12c1.59,1.02,3.21,2.33,4.83,3.89c1.66,1.61,3.21,3.61,4.62,5.97c1.38,2.32,2.6,5.05,3.64,8.1
		c1.03,3.04,1.83,6.54,2.37,10.42c0.84,7.37,1.32,14.39,1.42,20.93c0.12,7.45,0.07,12.81-0.16,17.36
		c-0.34,6.88-0.77,12.34-1.26,16.22c-0.65,5.12-2.09,9.95-4.29,14.34c-0.02,0.04-0.04,0.07-0.06,0.11
		c-0.99,1.76-2.16,3.52-3.47,5.21c-1.38,1.78-3.06,3.41-5.01,4.84c-1.98,1.45-4.26,2.6-6.79,3.4
		C375.55,122.75,372.68,123.16,369.53,123.16z"/>
	<path fill="#213266" d="M369.53,9.53c4.15,0.31,7.94,1.56,11.36,3.74c1.45,0.93,2.93,2.13,4.44,3.58c1.5,1.45,2.9,3.27,4.2,5.45
		c1.3,2.18,2.44,4.72,3.42,7.63c0.99,2.91,1.74,6.23,2.26,9.96c0.83,7.26,1.3,14.14,1.4,20.62c0.1,6.49,0.09,12.22-0.16,17.2
		c-0.31,6.2-0.72,11.93-1.24,16.03c-0.65,5.1-2.08,9.6-4.05,13.54c-0.93,1.66-2.02,3.3-3.27,4.9c-1.24,1.61-2.75,3.06-4.51,4.36
		c-1.76,1.3-3.79,2.31-6.07,3.04c-2.28,0.72-4.88,1.09-7.78,1.09c-3.22,0-6.07-0.49-8.56-1.48c-2.49-0.98-4.7-2.26-6.62-3.81
		c-1.92-1.56-3.53-3.32-4.82-5.29c-1.3-1.97-2.41-3.99-3.35-6.07c-2.08-4.88-3.42-10.32-4.05-16.34c-0.62-4.25-1.01-8.9-1.17-13.93
		c-0.16-5.03-0.18-9.73-0.08-14.09c0.1-5.08,0.31-10.22,0.62-15.41c0.52-6.43,1.81-12.19,3.89-17.28c0.93-2.18,2.07-4.3,3.42-6.38
		c1.35-2.07,2.98-3.92,4.9-5.53c1.92-1.61,4.18-2.93,6.77-3.97C363.1,10.05,366.11,9.53,369.53,9.53 M369.53,4.53
		c-4.04,0-7.71,0.64-10.88,1.91c-3.07,1.23-5.81,2.84-8.13,4.78c-2.3,1.92-4.28,4.16-5.89,6.64c-1.49,2.3-2.78,4.7-3.83,7.13
		c-0.01,0.03-0.02,0.05-0.03,0.08c-2.26,5.54-3.69,11.85-4.25,18.77c0,0.03-0.01,0.07-0.01,0.1c-0.32,5.29-0.53,10.54-0.63,15.61
		c-0.11,4.39-0.08,9.23,0.08,14.34c0.16,5.16,0.56,10,1.2,14.4c0.68,6.45,2.16,12.4,4.41,17.68c0.01,0.03,0.03,0.06,0.04,0.09
		c1.04,2.32,2.3,4.6,3.73,6.77c1.57,2.38,3.54,4.55,5.85,6.42c2.31,1.87,4.97,3.41,7.93,4.58c3.07,1.21,6.57,1.83,10.4,1.83
		c3.4,0,6.53-0.45,9.3-1.32c2.79-0.89,5.32-2.16,7.52-3.77c2.13-1.57,3.98-3.36,5.51-5.33c1.39-1.79,2.62-3.65,3.67-5.51
		c0.04-0.07,0.08-0.14,0.11-0.21c2.32-4.65,3.85-9.74,4.53-15.15c0.5-3.95,0.93-9.47,1.28-16.41c0.23-4.61,0.28-10.01,0.16-17.53
		c-0.11-6.62-0.59-13.72-1.43-21.11c0-0.04-0.01-0.08-0.02-0.12c-0.56-4.03-1.39-7.69-2.47-10.88c-1.1-3.23-2.39-6.11-3.86-8.58
		c-1.52-2.55-3.21-4.73-5.02-6.49c-1.74-1.68-3.49-3.09-5.21-4.19c-4.13-2.63-8.73-4.15-13.7-4.52
		C369.78,4.53,369.66,4.53,369.53,4.53L369.53,4.53z"/>
</g>
<g>
	<path fill="#FFFFFF" d="M458.09,123.33c-3.57,0-6.96-0.58-10.08-1.72c-3.05-1.17-5.96-3.14-8.69-5.87
		c-2.82-2.82-4.88-7.05-6.12-12.58c-1.17-5.43-1.85-11.11-2-16.9c-0.16-5.71-0.08-11,0.24-15.72c0.34-4.49,0.79-8.93,1.33-13.23
		c-0.49,0.01-0.97,0.02-1.45,0.02c-4.4,0-8.5-0.5-12.2-1.49c-2.14-0.56-4.25-1.39-6.28-2.46c-2.08-1.1-3.99-2.5-5.66-4.18
		c-1.74-1.73-3.13-3.87-4.13-6.36c-1-2.46-1.5-5.4-1.5-8.72c0-5.69,1.22-10.33,3.64-13.8c2.32-3.34,4.96-5.91,7.85-7.64
		c3.23-2,6.97-3.37,11.1-4.05c8.39-1.78,16.68-2.81,24.66-3.08c3.04-0.1,6.01-0.15,8.82-0.15c4.52,0,8.81,0.13,12.75,0.39
		c7.3,0.42,14.46,1.21,21.27,2.36c0.04,0.01,0.08,0.01,0.11,0.02c5.18,1.13,9.2,2.94,11.95,5.4c2.66,2.38,4.66,4.88,5.94,7.44
		c1.43,3.09,2.13,6.32,2.13,9.68c-0.11,3.65-0.66,6.8-1.63,9.43c-0.97,2.63-2.26,4.94-3.83,6.87c-1.58,1.94-3.4,3.52-5.42,4.7
		c-1.89,1.11-3.82,2.02-5.73,2.69c-3.47,1.13-7.27,1.69-11.35,1.69c-0.22,0-0.45,0-0.68-0.01c1.05,6.76,1.65,12.88,1.79,18.23
		c0.16,6.13,0.08,11.43-0.24,15.73c-0.43,5.11-1.13,9.52-2.08,13.16c-1.14,5.4-3.06,9.52-5.71,12.22c-2.52,2.58-5.15,4.53-7.79,5.8
		c-3.18,1.41-6.55,2.11-10.11,2.11C458.73,123.32,458.41,123.33,458.09,123.33z"/>
	<path fill="#213266" d="M457.61,7.9c4.49,0,8.68,0.13,12.58,0.38c7.26,0.42,14.27,1.19,21.01,2.33c4.77,1.04,8.38,2.65,10.82,4.83
		c2.44,2.18,4.23,4.41,5.37,6.69c1.24,2.7,1.87,5.55,1.87,8.56c-0.1,3.32-0.6,6.17-1.48,8.56c-0.88,2.39-2.02,4.44-3.42,6.15
		c-1.4,1.71-2.98,3.09-4.75,4.12c-1.77,1.04-3.53,1.87-5.29,2.49c-3.17,1.03-6.68,1.55-10.52,1.55c-1.18,0-2.4-0.05-3.64-0.15
		c1.35,7.89,2.1,14.86,2.26,20.93c0.16,6.07,0.08,11.23-0.23,15.49c-0.42,4.98-1.09,9.24-2.02,12.76
		c-1.04,4.98-2.72,8.67-5.06,11.05c-2.33,2.39-4.7,4.15-7.08,5.29c-2.8,1.24-5.81,1.87-9.03,1.87c-0.3,0.01-0.6,0.01-0.9,0.01
		c-3.29,0-6.37-0.52-9.22-1.57c-2.7-1.04-5.29-2.8-7.78-5.29c-2.49-2.49-4.31-6.28-5.45-11.36c-1.14-5.29-1.79-10.76-1.95-16.42
		c-0.16-5.65-0.08-10.82,0.23-15.49c0.41-5.5,0.99-10.84,1.71-16.03c-1.48,0.1-2.92,0.16-4.32,0.16c-4.2,0-8.05-0.47-11.56-1.4
		c-1.97-0.52-3.89-1.27-5.76-2.26c-1.87-0.98-3.56-2.23-5.06-3.74c-1.51-1.5-2.7-3.35-3.58-5.53c-0.88-2.18-1.32-4.77-1.32-7.78
		c0-5.19,1.06-9.31,3.19-12.37c2.13-3.06,4.49-5.37,7.08-6.93c3.01-1.87,6.43-3.11,10.27-3.74c8.3-1.76,16.39-2.78,24.28-3.04
		C451.9,7.95,454.81,7.9,457.61,7.9 M457.61,2.9c-2.84,0-5.84,0.05-8.91,0.15c-8.11,0.27-16.53,1.32-25.04,3.12
		c-4.42,0.73-8.44,2.21-11.96,4.38c-3.18,1.91-6.07,4.72-8.58,8.34c-2.71,3.9-4.08,9.02-4.08,15.23c0,3.64,0.57,6.89,1.69,9.66
		c1.13,2.79,2.7,5.21,4.68,7.19c1.84,1.85,3.95,3.4,6.26,4.62c2.19,1.16,4.49,2.06,6.82,2.67c3.5,0.93,7.35,1.45,11.45,1.55
		c-0.4,3.45-0.73,6.97-1,10.52c-0.32,4.84-0.4,10.21-0.25,16c0.16,5.95,0.86,11.78,2.06,17.34c1.35,6.04,3.64,10.68,6.8,13.84
		c2.98,2.98,6.18,5.14,9.53,6.42c0.02,0.01,0.05,0.02,0.07,0.03c3.39,1.24,7.07,1.87,10.94,1.87c0.32,0,0.64,0,0.97-0.01
		c3.88-0.01,7.58-0.78,10.99-2.3c0.04-0.02,0.09-0.04,0.13-0.06c2.91-1.39,5.77-3.51,8.5-6.31c3.02-3.08,5.1-7.47,6.35-13.39
		c0.98-3.76,1.7-8.3,2.14-13.5c0-0.02,0-0.03,0-0.05c0.32-4.39,0.4-9.77,0.24-15.98c-0.12-4.69-0.59-9.96-1.4-15.71
		c3.52-0.17,6.82-0.75,9.85-1.74c0.04-0.01,0.08-0.03,0.12-0.04c2.06-0.73,4.13-1.7,6.16-2.9c2.26-1.33,4.31-3.1,6.08-5.27
		c1.75-2.13,3.17-4.69,4.24-7.58c1.06-2.88,1.66-6.29,1.79-10.13c0-0.05,0-0.11,0-0.16c0-3.72-0.78-7.31-2.33-10.65
		c-0.02-0.05-0.05-0.1-0.07-0.15c-1.42-2.84-3.61-5.59-6.51-8.18c-3.12-2.79-7.4-4.75-13.09-5.98c-0.08-0.02-0.15-0.03-0.23-0.04
		c-6.9-1.17-14.15-1.97-21.56-2.4C466.53,3.03,462.19,2.9,457.61,2.9L457.61,2.9z"/>
</g>
<g>
	<defs>
		<path id="SVGID_1_" d="M382.3,77.3c0,13.85-3.09,25.08-13.28,25.08c-10.18,0-13.77-11.23-13.77-25.08s3.59-25.08,13.77-25.08
			C379.21,52.22,382.3,63.45,382.3,77.3z"/>
	</defs>
	<clipPath id="SVGID_2_">
		<use xlink:href="#SVGID_1_"  overflow="visible"/>
	</clipPath>
	<g clip-path="url(#SVGID_2_)">
		<defs>
			<path id="SVGID_3_" d="M382.3,77.3c0,13.85-3.09,25.08-13.28,25.08c-10.18,0-13.77-11.23-13.77-25.08s3.59-25.08,13.77-25.08
				C379.21,52.22,382.3,63.45,382.3,77.3z"/>
		</defs>
		<use xlink:href="#SVGID_3_"  overflow="visible" fill="#FAA51A"/>
		<clipPath id="SVGID_4_">
			<use xlink:href="#SVGID_3_"  overflow="visible"/>
		</clipPath>
		<path clip-path="url(#SVGID_4_)" fill="#FAA51A" d="M382.3,77.3c0,13.85-3.09,25.08-13.28,25.08c-10.18,0-13.77-11.23-13.77-25.08
			s3.59-25.08,13.77-25.08C379.21,52.22,382.3,63.45,382.3,77.3z"/>
	</g>
	<ellipse clip-path="url(#SVGID_2_)" fill="#FFCD33" cx="368.78" cy="62.36" rx="18.5" ry="28.75"/>
</g>
</svg>
