<?xml version="1.0" encoding="utf-8"?>
<!-- Generator: Adobe Illustrator 17.1.0, SVG Export Plug-In . SVG Version: 6.00 Build 0)  -->
<!DOCTYPE svg PUBLIC "-//W3C//DTD SVG 1.1//EN" "http://www.w3.org/Graphics/SVG/1.1/DTD/svg11.dtd">
<svg id="clock_svg" version="1.1" xmlns="http://www.w3.org/2000/svg" xmlns:xlink="http://www.w3.org/1999/xlink" x="0px" y="0px"
	 viewBox="0 0 142.511 146.227" enable-background="new 0 0 142.511 146.227" xml:space="preserve">
<g id="clock">
	<g id="Layer_1">
		<path id="color_body" fill="#DF574B" d="M142.511,130.962c0,8.431-6.834,15.265-15.265,15.265H15.265C6.834,146.227,0,139.393,0,130.962V18.981
			C0,10.551,6.834,3.716,15.265,3.716h111.981c8.431,0,15.265,6.834,15.265,15.265V130.962z"/>
		<path fill="#FFFFFF" d="M132.985,123.477c0,7.303-5.921,13.224-13.224,13.224H22.75c-7.303,0-13.224-5.921-13.224-13.224v-97.01
			c0-7.303,5.921-13.224,13.224-13.224h97.01c7.303,0,13.224,5.921,13.224,13.224V123.477z"/>
		<path fill="#FFFFFF" d="M115.585,14.363c0,2.144-1.738,3.883-3.883,3.883h-10.48c-2.144,0-3.883-1.738-3.883-3.883V3.883
			c0-2.144,1.738-3.883,3.883-3.883h10.48c2.144,0,3.883,1.738,3.883,3.883V14.363z"/>
		<path fill="#EAEAEA" d="M125.525,117.615c0,6.421-5.205,11.626-11.626,11.626H28.612c-6.421,0-11.626-5.205-11.626-11.626V32.328
			c0-6.421,5.205-11.626,11.626-11.626h85.287c6.421,0,11.626,5.205,11.626,11.626V117.615z"/>
	</g>
	<g id="Layer_2">
	</g>
	<g id="Layer_4">
		<g>
			<defs>
				<circle id="SVGID_3_" cx="71.562" cy="74.972" r="52.438"/>
			</defs>
			<clipPath id="SVGID_1_">
				<use xlink:href="#SVGID_3_"  overflow="visible"/>
			</clipPath>
			<g clip-path="url(#SVGID_1_)">
				<line fill="none" stroke="#4C4C4D" stroke-width="3" stroke-miterlimit="10" x1="71.562" y1="74.972" x2="71.562" y2="133.597"/>
				<line fill="none" stroke="#4C4C4D" stroke-miterlimit="10" x1="71.562" y1="74.972" x2="127.318" y2="93.088"/>
				<line fill="none" stroke="#4C4C4D" stroke-miterlimit="10" x1="71.562" y1="74.972" x2="106.021" y2="27.543"/>
				<line fill="none" stroke="#4C4C4D" stroke-miterlimit="10" x1="71.562" y1="74.972" x2="37.104" y2="27.543"/>
				<line fill="none" stroke="#4C4C4D" stroke-miterlimit="10" x1="71.562" y1="74.972" x2="15.807" y2="93.088"/>
				<line fill="none" stroke="#4C4C4D" stroke-width="3" stroke-miterlimit="10" x1="71.562" y1="74.972" x2="71.562" y2="16.347"/>
				<line fill="none" stroke="#4C4C4D" stroke-miterlimit="10" x1="71.562" y1="74.972" x2="15.807" y2="56.855"/>
				<line fill="none" stroke="#4C4C4D" stroke-miterlimit="10" x1="71.562" y1="74.972" x2="37.104" y2="122.4"/>
				<line fill="none" stroke="#4C4C4D" stroke-miterlimit="10" x1="71.562" y1="74.972" x2="106.021" y2="122.4"/>
				<line fill="none" stroke="#4C4C4D" stroke-miterlimit="10" x1="71.562" y1="74.972" x2="127.318" y2="56.855"/>
				<line fill="none" stroke="#4C4C4D" stroke-width="3" stroke-miterlimit="10" x1="71.562" y1="74.972" x2="130.188" y2="74.972"/>
				<line fill="none" stroke="#4C4C4D" stroke-miterlimit="10" x1="71.562" y1="74.972" x2="89.679" y2="19.216"/>
				<line fill="none" stroke="#4C4C4D" stroke-miterlimit="10" x1="71.562" y1="74.972" x2="24.134" y2="40.513"/>
				<line fill="none" stroke="#4C4C4D" stroke-miterlimit="10" x1="71.562" y1="74.972" x2="24.134" y2="109.43"/>
				<line fill="none" stroke="#4C4C4D" stroke-miterlimit="10" x1="71.562" y1="74.972" x2="89.679" y2="130.727"/>
				<line fill="none" stroke="#4C4C4D" stroke-width="3" stroke-miterlimit="10" x1="71.562" y1="74.972" x2="12.938" y2="74.972"/>
				<line fill="none" stroke="#4C4C4D" stroke-miterlimit="10" x1="71.562" y1="74.972" x2="53.446" y2="130.727"/>
				<line fill="none" stroke="#4C4C4D" stroke-miterlimit="10" x1="71.562" y1="74.972" x2="118.991" y2="109.43"/>
				<line fill="none" stroke="#4C4C4D" stroke-miterlimit="10" x1="71.562" y1="74.972" x2="118.991" y2="40.513"/>
				<line fill="none" stroke="#4C4C4D" stroke-miterlimit="10" x1="71.562" y1="74.972" x2="53.446" y2="19.216"/>
			</g>
		</g>
	</g>
	<g id="Layer_3">
		<circle fill="#EAEAEA" cx="71.562" cy="74.972" r="43.438"/>
	</g>
	<g id="Layer_5">
		<g>
			<circle id="head_center" fill="#ED1F24" cx="71.563" cy="76.125" r="4.5"/>
			<rect id="head_line" x="70.933" y="26.501" fill="#ED1F24" width="1.25" height="58.999" rotation="90" />
			<circle id="head_end" fill="#FFFFFF" stroke="#4F4F4F" stroke-width="2" stroke-miterlimit="10" cx="71.563" cy="88.75" r="3.25"/>
		</g>
	</g>
</g>
</svg>
